<?xml version="1.0" encoding="utf-8"?>
<svg width="300" height="300" viewBox="0 0 300 300" fill="none" stroke="none" version="1.1" xmlns:xlink="http://www.w3.org/1999/xlink" xmlns="http://www.w3.org/2000/svg">
  <defs>
    <rect id="rect_1" x="0" y="0" width="100" height="167" />
    <clipPath id="clip_path_2">
      <use xlink:href="#rect_1" />
    </clipPath>
  </defs>
  <g id="SingleElement">
    <path id="Овал" d="M0 150C0 67.1572 67.1573 0 150 0C232.843 0 300 67.1572 300 150C300 232.843 232.843 300 150 300C67.1573 300 0 232.843 0 150Z" style="fill:#FF9900;fill-rule:evenodd;mix-blend-mode:normal;" />
    <g clip-path="url(#clip_path_2)" style="mix-blend-mode:normal;" transform="translate(100 66.5)">
      <path d="M75.5127 123.12L75.5127 135.791L4.54102 135.791Q4.39453 131.03 6.0791 126.636Q8.78906 119.385 14.7583 112.354Q20.7275 105.322 32.0068 96.0938Q49.5117 81.7383 55.6641 73.3521Q61.8164 64.9658 61.8164 57.4951Q61.8164 49.6582 56.2134 44.2749Q50.6104 38.8916 41.6016 38.8916Q32.0801 38.8916 26.3672 44.6045Q20.6543 50.3174 20.5811 60.4248L7.03125 59.0332Q8.42285 43.8721 17.5049 35.9253Q26.5869 27.9785 41.8945 27.9785Q57.3486 27.9785 66.3574 36.5479Q75.3662 45.1172 75.3662 57.7881Q75.3662 64.2334 72.7295 70.459Q70.0928 76.6846 63.9771 83.5693Q57.8613 90.4541 43.6523 102.466Q31.7871 112.427 28.418 115.979Q25.0488 119.531 22.8516 123.12L75.5127 123.12Z" transform="translate(8.289 0)" style="fill:#FFFFFF;" />
    </g>
  </g>
</svg>