<?xml version="1.0" encoding="utf-8"?>
<svg width="300" height="300" viewBox="0 0 300 300" fill="none" stroke="none" version="1.1" xmlns:xlink="http://www.w3.org/1999/xlink" xmlns="http://www.w3.org/2000/svg">
  <defs>
    <rect id="rect_1" x="0" y="0" width="100" height="167" />
    <clipPath id="clip_path_2">
      <use xlink:href="#rect_1" />
    </clipPath>
  </defs>
  <g id="SingleElement">
    <path id="Овал" d="M0 150C0 67.1572 67.1573 0 150 0C232.843 0 300 67.1572 300 150C300 232.843 232.843 300 150 300C67.1573 300 0 232.843 0 150Z" style="fill:#FF9900;fill-rule:evenodd;mix-blend-mode:normal;" />
    <g clip-path="url(#clip_path_2)" style="mix-blend-mode:normal;" transform="translate(100 66.5)">
      <path d="M6.29883 107.446L19.4824 105.688Q21.7529 116.895 27.2095 121.838Q32.666 126.782 40.5029 126.782Q49.8047 126.782 56.2134 120.337Q62.6221 113.892 62.6221 104.37Q62.6221 95.2881 56.6895 89.3921Q50.7568 83.4961 41.6016 83.4961Q37.8662 83.4961 32.2998 84.9609L33.7646 73.3887Q35.083 73.5352 35.8887 73.5352Q44.3115 73.5352 51.0498 69.1406Q57.7881 64.7461 57.7881 55.5908Q57.7881 48.3398 52.8809 43.5791Q47.9736 38.8184 40.21 38.8184Q32.5195 38.8184 27.3926 43.6523Q22.2656 48.4863 20.8008 58.1543L7.61719 55.8105Q10.0342 42.5537 18.6035 35.2661Q27.1729 27.9785 39.917 27.9785Q48.7061 27.9785 56.1035 31.7505Q63.501 35.5225 67.4194 42.041Q71.3379 48.5596 71.3379 55.8838Q71.3379 62.8418 67.6025 68.5547Q63.8672 74.2676 56.543 77.6367Q66.0644 79.834 71.3379 86.7554Q76.6113 93.6768 76.6113 104.077Q76.6113 118.14 66.3574 127.917Q56.1035 137.695 40.4297 137.695Q26.2939 137.695 16.9556 129.272Q7.61719 120.85 6.29883 107.446Z" transform="translate(8.289 0)" style="fill:#FFFFFF;" />
    </g>
  </g>
</svg>