<?xml version="1.0" encoding="utf-8"?>
<svg width="614px" height="658px" viewBox="0 0 614 658" version="1.1" xmlns:xlink="http://www.w3.org/1999/xlink" xmlns="http://www.w3.org/2000/svg">
  <defs>
    <path d="M614 0L614 0L614 614L0 614L0 0L614 0Z" id="path_1" />
    <path d="M40.0435 0C18.0787 0 0 15.7178 0 34.7857L0 139.143L0 255.095L0 452.214C0 471.282 18.0787 487 40.0435 487L573.957 487C595.914 487 614 471.289 614 452.214L614 255.095L614 139.143L614 81.1667C614 62.0918 595.914 46.381 573.957 46.381L213.565 46.381C214.721 46.381 213.151 46.3852 209.889 43.1198C206.627 39.8544 202.612 34.4372 198.419 28.6257C194.225 22.8143 189.83 16.6135 184.289 11.1649C178.747 5.71635 171.103 0 160.174 0L40.0435 0L40.0435 0ZM40.0435 23.1905L160.174 23.1905C159.363 23.1905 160.99 23.2718 164.293 26.5196C167.596 29.7674 171.616 35.1619 175.79 40.9457C179.964 46.7295 184.286 52.9075 189.711 58.3386C195.137 63.7696 202.606 69.5715 213.565 69.5715L573.957 69.5715C581.471 69.5715 587.304 74.6393 587.304 81.1667L587.304 106.531C583.101 105.215 578.653 104.357 573.957 104.357L40.0435 104.357C35.3471 104.357 30.8988 105.215 26.6956 106.531L26.6956 34.7857C26.6956 28.2514 32.5096 23.1905 40.0435 23.1905L40.0435 23.1905ZM40.0435 127.548L573.957 127.548C581.499 127.548 587.304 132.591 587.304 139.143L587.304 255.095L587.304 452.214C587.304 458.742 581.471 463.81 573.957 463.81L40.0435 463.81C32.5096 463.81 26.6956 458.749 26.6956 452.214L26.6956 255.095L26.6956 139.143C26.6956 132.591 32.5016 127.548 40.0435 127.548L40.0435 127.548Z" id="path_2" />
    <path d="M0 0L43 0L43 44L0 44L0 0Z" id="path_3" />
    <path d="M0 0L322 0L322 75L0 75L0 0Z" id="path_4" />
    <clipPath id="clip_1">
      <use xlink:href="#path_1" />
    </clipPath>
    <clipPath id="clip_2">
      <use xlink:href="#path_1" clip-rule="evenodd" fill-rule="evenodd" />
    </clipPath>
    <clipPath id="clip_3">
      <use xlink:href="#path_2" />
    </clipPath>
    <clipPath id="clip_4">
      <use xlink:href="#path_3" clip-rule="evenodd" fill-rule="evenodd" />
    </clipPath>
    <clipPath id="clip_5">
      <use xlink:href="#path_4" clip-rule="evenodd" fill-rule="evenodd" />
    </clipPath>
  </defs>
  <g id="Folder-Invoices" transform="translate(0 44)">
    <g clip-path="url(#clip_1)">
      <use xlink:href="#path_1" fill="none" stroke="#F23131" stroke-width="0" />
    </g>
    <g id="Фигура" clip-path="url(#clip_2)" transform="translate(0 44)">
      <use stroke="none" fill="#20B3B8" xlink:href="#path_2" fill-rule="evenodd" />
      <g clip-path="url(#clip_3)">
        <use xlink:href="#path_2" fill="none" stroke="#EC1212" stroke-width="8" />
      </g>
    </g>
    <g id="" clip-path="url(#clip_4)" transform="translate(0 44), translate(571 487)">
      <g transform="translate(2.2578125, 24)" id="" fill="#20B3B8">
        <path d="M30.1406 29.7188Q30.1406 30.0938 30 30.375Q29.8594 30.6563 29.4844 30.8438Q29.1094 31.0313 28.5703 31.125Q28.0313 31.2188 27.1875 31.2188Q26.3438 31.2188 25.7813 31.125Q25.2188 31.0313 24.8672 30.8438Q24.5156 30.6563 24.375 30.375Q24.2344 30.0938 24.2344 29.7188L23.1563 8.01563Q23.1563 7.64063 23.3906 7.35938Q23.625 7.07813 24.0938 6.89063Q24.5625 6.70313 25.3359 6.60938Q26.1094 6.51563 27.1875 6.51563Q28.3125 6.51563 29.0859 6.60938Q29.8594 6.70313 30.3281 6.89063Q30.7969 7.07813 31.0078 7.35938Q31.2188 7.64063 31.1719 8.01563L30.1406 29.7188ZM13.5 29.7188Q13.5 30.0938 13.3594 30.375Q13.2188 30.6563 12.8438 30.8438Q12.4688 31.0313 11.9297 31.125Q11.3906 31.2188 10.5469 31.2188Q9.70312 31.2188 9.14063 31.125Q8.57813 31.0313 8.22656 30.8438Q7.875 30.6563 7.73438 30.375Q7.59375 30.0938 7.59375 29.7188L6.51563 8.01563Q6.51563 7.64063 6.75 7.35938Q6.98438 7.07813 7.45313 6.89063Q7.92187 6.70313 8.69531 6.60938Q9.46875 6.51563 10.5469 6.51563Q12.7969 6.51563 13.6875 6.89063Q14.5781 7.26563 14.5781 8.01563L13.5 29.7188Z" />
      </g>
    </g>
    <g id="Всем-привет" clip-path="url(#clip_5)" transform="translate(0 44), translate(146 216)">
      <g transform="translate(20.703125, 10.171875)" id="Всем-привет" fill="#2D3FC3">
        <path d="M3.51563 43.4531L3.51563 9.09375L16.4063 9.09375Q20.3438 9.09375 22.7227 10.1367Q25.1016 11.1797 26.4492 13.3477Q27.7969 15.5156 27.7969 17.8828Q27.7969 20.0859 26.6016 22.0313Q25.4063 23.9766 22.9922 25.1719Q26.1094 26.0859 27.7852 28.2891Q29.4609 30.4922 29.4609 33.4922Q29.4609 35.9063 28.4414 37.9805Q27.4219 40.0547 25.9219 41.1797Q24.4219 42.3047 22.1602 42.8789C20.6523 43.2617 18.8047 43.4531 16.6172 43.4531L3.51563 43.4531ZM8.0625 23.5313L15.4922 23.5313Q18.5156 23.5313 19.8281 23.1328Q21.5625 22.6172 22.4414 21.4219Q23.3203 20.2266 23.3203 18.4219Q23.3203 16.7109 22.5 15.4102Q21.6797 14.1094 20.1563 13.6289Q18.6328 13.1484 14.9297 13.1484L8.0625 13.1484L8.0625 23.5313ZM8.0625 39.3984L16.6172 39.3984Q18.8203 39.3984 19.7109 39.2344Q21.2812 38.9531 22.3359 38.2969Q23.3906 37.6406 24.0703 36.3867Q24.75 35.1328 24.75 33.4922Q24.75 31.5703 23.7656 30.1523Q22.7812 28.7344 21.0352 28.1602Q19.2891 27.5859 16.0078 27.5859L8.0625 27.5859L8.0625 39.3984ZM51.4219 34.3359L55.5703 34.875Q54.8906 39.1641 52.0898 41.5898Q49.2891 44.0156 45.2109 44.0156Q40.1016 44.0156 36.9961 40.6758Q33.8906 37.3359 33.8906 31.1016Q33.8906 27.0703 35.2266 24.0469Q36.5625 21.0234 39.293 19.5117Q42.0234 18 45.2344 18Q49.2891 18 51.8672 20.0508Q54.4453 22.1016 55.1719 25.875L51.0703 26.5078Q50.4844 24 48.9961 22.7344Q47.5078 21.4688 45.3984 21.4688Q42.2109 21.4688 40.2188 23.7539Q38.2266 26.0391 38.2266 30.9844Q38.2266 36 40.1484 38.2734Q42.0703 40.5469 45.1641 40.5469Q47.6484 40.5469 49.3125 39.0234Q50.9766 37.5 51.4219 34.3359ZM76.2188 35.4375L80.5781 35.9766Q79.5469 39.7969 76.7578 41.9063Q73.9688 44.0156 69.6328 44.0156Q64.1719 44.0156 60.9727 40.6523Q57.7734 37.2891 57.7734 31.2188Q57.7734 24.9375 61.0078 21.4688Q64.2422 18 69.3984 18Q74.3906 18 77.5547 21.3984Q80.7188 24.7969 80.7188 30.9609Q80.7188 31.3359 80.6953 32.0859L62.1328 32.0859Q62.3672 36.1875 64.4531 38.3672Q66.5391 40.5469 69.6563 40.5469Q71.9766 40.5469 73.6172 39.3281Q75.2578 38.1094 76.2188 35.4375ZM62.3672 28.6172L76.2656 28.6172Q75.9844 25.4766 74.6719 23.9063Q72.6563 21.4688 69.4453 21.4688Q66.5391 21.4688 64.5586 23.4141Q62.5781 25.3594 62.3672 28.6172ZM85.9922 18.5625L92.5547 18.5625L99.0938 38.4844L106.359 18.5625L112.43 18.5625L112.43 43.4531L108.211 43.4531L108.211 23.4141L100.852 43.4531L97.0781 43.4531L90.1172 22.4531L90.1172 43.4531L85.9922 43.4531L85.9922 18.5625ZM132.234 18.5625L151.875 18.5625L151.875 43.4531L147.656 43.4531L147.656 22.0547L136.453 22.0547L136.453 43.4531L132.234 43.4531L132.234 18.5625ZM158.203 52.9922L158.203 18.5625L162.047 18.5625L162.047 21.7969Q163.406 19.8984 165.117 18.9492Q166.828 18 169.266 18Q172.453 18 174.891 19.6406Q177.328 21.2813 178.57 24.2695Q179.813 27.2578 179.813 30.8203Q179.813 34.6406 178.441 37.6992Q177.07 40.7578 174.457 42.3867Q171.844 44.0156 168.961 44.0156Q166.852 44.0156 165.176 43.125Q163.5 42.2344 162.422 40.875L162.422 52.9922L158.203 52.9922ZM162.023 31.1484Q162.023 35.9531 163.969 38.25Q165.914 40.5469 168.68 40.5469Q171.492 40.5469 173.496 38.168Q175.5 35.7891 175.5 30.7969Q175.5 26.0391 173.543 23.6719Q171.586 21.3047 168.867 21.3047Q166.172 21.3047 164.098 23.8242Q162.023 26.3438 162.023 31.1484ZM184.898 18.5625L189.117 18.5625L189.117 37.5469L200.813 18.5625L205.359 18.5625L205.359 43.4531L201.141 43.4531L201.141 24.5859L189.445 43.4531L184.898 43.4531L184.898 18.5625ZM211.734 18.5625L221.461 18.5625Q225.047 18.5625 226.793 19.1602Q228.539 19.7578 229.793 21.3516Q231.047 22.9453 231.047 25.1719Q231.047 26.9531 230.309 28.2773Q229.57 29.6016 228.094 30.4922Q229.852 31.0781 231.012 32.6836Q232.172 34.2891 232.172 36.4922Q231.938 40.0313 229.641 41.7422Q227.344 43.4531 222.961 43.4531L211.734 43.4531L211.734 18.5625ZM215.953 29.0391L220.453 29.0391Q223.148 29.0391 224.156 28.7578Q225.164 28.4766 225.961 27.6211Q226.758 26.7656 226.758 25.5703Q226.758 23.6016 225.363 22.8281Q223.969 22.0547 220.594 22.0547L215.953 22.0547L215.953 29.0391ZM215.953 39.9844L221.508 39.9844Q225.094 39.9844 226.43 39.1523Q227.766 38.3203 227.836 36.2813Q227.836 35.0859 227.063 34.0664Q226.289 33.0469 225.047 32.7773Q223.805 32.5078 221.063 32.5078L215.953 32.5078L215.953 39.9844ZM253.711 35.4375L258.07 35.9766Q257.039 39.7969 254.25 41.9063Q251.461 44.0156 247.125 44.0156Q241.664 44.0156 238.465 40.6523Q235.266 37.2891 235.266 31.2188Q235.266 24.9375 238.5 21.4688Q241.734 18 246.891 18Q251.883 18 255.047 21.3984Q258.211 24.7969 258.211 30.9609Q258.211 31.3359 258.188 32.0859L239.625 32.0859Q239.859 36.1875 241.945 38.3672Q244.031 40.5469 247.148 40.5469Q249.469 40.5469 251.109 39.3281Q252.75 38.1094 253.711 35.4375ZM239.859 28.6172L253.758 28.6172Q253.477 25.4766 252.164 23.9063Q250.148 21.4688 246.938 21.4688Q244.031 21.4688 242.051 23.4141Q240.07 25.3594 239.859 28.6172ZM259.5 18.5625L279.727 18.5625L279.727 22.0547L271.711 22.0547L271.711 43.4531L267.516 43.4531L267.516 22.0547L259.5 22.0547L259.5 18.5625Z" />
      </g>
    </g>
  </g>
  <g id="" clip-path="url(#clip_4)">
    <g transform="translate(2.2578125, 24)" id="" fill="#20B3B8">
      <path d="M30.1406 29.7188Q30.1406 30.0938 30 30.375Q29.8594 30.6563 29.4844 30.8438Q29.1094 31.0313 28.5703 31.125Q28.0313 31.2188 27.1875 31.2188Q26.3438 31.2188 25.7813 31.125Q25.2188 31.0313 24.8672 30.8438Q24.5156 30.6563 24.375 30.375Q24.2344 30.0938 24.2344 29.7188L23.1563 8.01563Q23.1563 7.64063 23.3906 7.35938Q23.625 7.07813 24.0938 6.89063Q24.5625 6.70313 25.3359 6.60938Q26.1094 6.51563 27.1875 6.51563Q28.3125 6.51563 29.0859 6.60938Q29.8594 6.70313 30.3281 6.89063Q30.7969 7.07813 31.0078 7.35938Q31.2188 7.64063 31.1719 8.01563L30.1406 29.7188ZM13.5 29.7188Q13.5 30.0938 13.3594 30.375Q13.2188 30.6563 12.8438 30.8438Q12.4688 31.0313 11.9297 31.125Q11.3906 31.2188 10.5469 31.2188Q9.70312 31.2188 9.14063 31.125Q8.57813 31.0313 8.22656 30.8438Q7.875 30.6563 7.73438 30.375Q7.59375 30.0938 7.59375 29.7188L6.51563 8.01563Q6.51563 7.64063 6.75 7.35938Q6.98438 7.07813 7.45313 6.89063Q7.92187 6.70313 8.69531 6.60938Q9.46875 6.51563 10.5469 6.51563Q12.7969 6.51563 13.6875 6.89063Q14.5781 7.26563 14.5781 8.01563L13.5 29.7188Z" />
    </g>
  </g>
</svg>