<?xml version="1.0" encoding="utf-8"?>
<svg width="614px" height="658px" viewBox="0 0 614 658" version="1.1" xmlns:xlink="http://www.w3.org/1999/xlink" xmlns="http://www.w3.org/2000/svg">
  <defs>
    <path d="M614 0L614 0L614 614L0 614L0 0L614 0Z" id="path_1" />
    <path d="M40.0435 0C18.0787 0 0 15.7178 0 34.7857L0 139.143L0 255.095L0 452.214C0 471.282 18.0787 487 40.0435 487L573.957 487C595.914 487 614 471.289 614 452.214L614 255.095L614 139.143L614 81.1667C614 62.0918 595.914 46.381 573.957 46.381L213.565 46.381C214.721 46.381 213.151 46.3852 209.889 43.1198C206.627 39.8544 202.612 34.4372 198.419 28.6257C194.225 22.8143 189.83 16.6135 184.289 11.1649C178.747 5.71635 171.103 0 160.174 0L40.0435 0L40.0435 0ZM40.0435 23.1905L160.174 23.1905C159.363 23.1905 160.99 23.2718 164.293 26.5196C167.596 29.7674 171.616 35.1619 175.79 40.9457C179.964 46.7295 184.286 52.9075 189.711 58.3386C195.137 63.7696 202.606 69.5715 213.565 69.5715L573.957 69.5715C581.471 69.5715 587.304 74.6393 587.304 81.1667L587.304 106.531C583.101 105.215 578.653 104.357 573.957 104.357L40.0435 104.357C35.3471 104.357 30.8988 105.215 26.6956 106.531L26.6956 34.7857C26.6956 28.2514 32.5096 23.1905 40.0435 23.1905L40.0435 23.1905ZM40.0435 127.548L573.957 127.548C581.499 127.548 587.304 132.591 587.304 139.143L587.304 255.095L587.304 452.214C587.304 458.742 581.471 463.81 573.957 463.81L40.0435 463.81C32.5096 463.81 26.6956 458.749 26.6956 452.214L26.6956 255.095L26.6956 139.143C26.6956 132.591 32.5016 127.548 40.0435 127.548L40.0435 127.548Z" id="path_2" />
    <path d="M0 0L43 0L43 44L0 44L0 0Z" id="path_3" />
    <clipPath id="clip_1">
      <use xlink:href="#path_1" />
    </clipPath>
    <clipPath id="clip_2">
      <use xlink:href="#path_1" clip-rule="evenodd" fill-rule="evenodd" />
    </clipPath>
    <clipPath id="clip_3">
      <use xlink:href="#path_2" />
    </clipPath>
    <clipPath id="clip_4">
      <use xlink:href="#path_3" clip-rule="evenodd" fill-rule="evenodd" />
    </clipPath>
  </defs>
  <g id="Folder-Invoices" transform="translate(0 44)">
    <g clip-path="url(#clip_1)">
      <use xlink:href="#path_1" fill="none" stroke="#F23131" stroke-width="0" />
    </g>
    <g id="Фигура" clip-path="url(#clip_2)" transform="translate(0 44)">
      <use stroke="none" fill="#20B3B8" xlink:href="#path_2" fill-rule="evenodd" />
      <g clip-path="url(#clip_3)">
        <use xlink:href="#path_2" fill="none" stroke="#EC1212" stroke-width="8" />
      </g>
    </g>
    <g id="" clip-path="url(#clip_4)" transform="translate(0 44), translate(571 487)">
      <g transform="translate(2.2578125, 24)" id="" fill="#20B3B8">
        <path d="M30.1406 29.7188Q30.1406 30.0938 30 30.375Q29.8594 30.6563 29.4844 30.8438Q29.1094 31.0313 28.5703 31.125Q28.0313 31.2188 27.1875 31.2188Q26.3438 31.2188 25.7813 31.125Q25.2188 31.0313 24.8672 30.8438Q24.5156 30.6563 24.375 30.375Q24.2344 30.0938 24.2344 29.7188L23.1563 8.01563Q23.1563 7.64063 23.3906 7.35938Q23.625 7.07813 24.0938 6.89063Q24.5625 6.70313 25.3359 6.60938Q26.1094 6.51563 27.1875 6.51563Q28.3125 6.51563 29.0859 6.60938Q29.8594 6.70313 30.3281 6.89063Q30.7969 7.07813 31.0078 7.35938Q31.2188 7.64063 31.1719 8.01563L30.1406 29.7188ZM13.5 29.7188Q13.5 30.0938 13.3594 30.375Q13.2188 30.6563 12.8438 30.8438Q12.4688 31.0313 11.9297 31.125Q11.3906 31.2188 10.5469 31.2188Q9.70312 31.2188 9.14063 31.125Q8.57813 31.0313 8.22656 30.8438Q7.875 30.6563 7.73438 30.375Q7.59375 30.0938 7.59375 29.7188L6.51563 8.01563Q6.51563 7.64063 6.75 7.35938Q6.98438 7.07813 7.45313 6.89063Q7.92187 6.70313 8.69531 6.60938Q9.46875 6.51563 10.5469 6.51563Q12.7969 6.51563 13.6875 6.89063Q14.5781 7.26563 14.5781 8.01563L13.5 29.7188Z" />
      </g>
    </g>
  </g>
  <g id="" clip-path="url(#clip_4)">
    <g transform="translate(2.2578125, 24)" id="" fill="#20B3B8">
      <path d="M30.1406 29.7188Q30.1406 30.0938 30 30.375Q29.8594 30.6563 29.4844 30.8438Q29.1094 31.0313 28.5703 31.125Q28.0313 31.2188 27.1875 31.2188Q26.3438 31.2188 25.7813 31.125Q25.2188 31.0313 24.8672 30.8438Q24.5156 30.6563 24.375 30.375Q24.2344 30.0938 24.2344 29.7188L23.1563 8.01563Q23.1563 7.64063 23.3906 7.35938Q23.625 7.07813 24.0938 6.89063Q24.5625 6.70313 25.3359 6.60938Q26.1094 6.51563 27.1875 6.51563Q28.3125 6.51563 29.0859 6.60938Q29.8594 6.70313 30.3281 6.89063Q30.7969 7.07813 31.0078 7.35938Q31.2188 7.64063 31.1719 8.01563L30.1406 29.7188ZM13.5 29.7188Q13.5 30.0938 13.3594 30.375Q13.2188 30.6563 12.8438 30.8438Q12.4688 31.0313 11.9297 31.125Q11.3906 31.2188 10.5469 31.2188Q9.70312 31.2188 9.14063 31.125Q8.57813 31.0313 8.22656 30.8438Q7.875 30.6563 7.73438 30.375Q7.59375 30.0938 7.59375 29.7188L6.51563 8.01563Q6.51563 7.64063 6.75 7.35938Q6.98438 7.07813 7.45313 6.89063Q7.92187 6.70313 8.69531 6.60938Q9.46875 6.51563 10.5469 6.51563Q12.7969 6.51563 13.6875 6.89063Q14.5781 7.26563 14.5781 8.01563L13.5 29.7188Z" />
    </g>
  </g>
</svg>